<svg xmlns="http://www.w3.org/2000/svg" viewBox="0 0 512 512" width="512" height="512">
  <defs>
    <linearGradient id="circleGradient" x1="0%" y1="0%" x2="100%" y2="100%">
      <stop offset="0%" style="stop-color:#3498db"/>
      <stop offset="100%" style="stop-color:#2c3e50"/>
    </linearGradient>

    <linearGradient id="pathGradient" x1="0%" y1="0%" x2="100%" y2="100%">
      <stop offset="0%" style="stop-color:#34d399"/>
      <stop offset="100%" style="stop-color:#60a5fa"/>
    </linearGradient>
  </defs>

  <circle cx="256" cy="256" r="256" fill="url(#circleGradient)"/>
  
  <g transform="translate(256, 256) scale(1.7)">
    <path d="M-100,0 A100,100 0 0,1 0,100 L0,80 A80,80 0 0,0 -80,0 L-100,0 Z" fill="#2980b9"/>
    <path d="M0,100 A100,100 0 0,1 100,0 L80,0 A80,80 0 0,0 0,80 L0,100 Z" fill="#2980b9"/>
    <path d="M100,0 A100,100 0 0,1 0,-100 L0,-80 A80,80 0 0,0 80,0 L100,0 Z" fill="#2980b9"/>
    <path d="M0,-100 A100,100 0 0,1 -100,0 L-80,0 A80,80 0 0,0 0,-80 L0,-100 Z" fill="#2980b9"/>
    
    <circle cx="0" cy="0" r="120" stroke="#2980b9" stroke-width="6" fill="none"/>
    <circle cx="0" cy="0" r="90" stroke="#2980b9" stroke-width="6" fill="none"/>
    
    <path d="M -120 0 L 120 0 M 0 -120 L 0 120" stroke="#2980b9" stroke-width="6"/>
    
    <path d="M-20,-120 L20,-120 L0,-140 Z" fill="#3498db"/>
    <path d="M-20,120 L20,120 L0,140 Z" fill="#3498db"/>
    <path d="M-120,-20 L-120,20 L-140,0 Z" fill="#3498db"/>
    <path d="M120,-20 L120,20 L140,0 Z" fill="#3498db"/>

    <polygon points="0,-100 20,-20 100,0 20,20 0,100 -20,20 -100,0 -20,-20" fill="#60a5fa" stroke="#e0e0e0" stroke-width="3"/>
    
    <path d="M-90,-50 Q-100,50 0,100 Q100,50 90,-50" fill="none" stroke="url(#pathGradient)" stroke-width="18" stroke-linecap="round"/>
  </g>
</svg>